<!--?xml version="1.0" encoding="utf-8"?-->
<!-- Generator: Adobe Illustrator 22.1.0, SVG Export Plug-In . SVG Version: 6.00 Build 0)  -->
<svg version="1.1" id="_x32_" xmlns="http://www.w3.org/2000/svg" xmlns:xlink="http://www.w3.org/1999/xlink" x="0px" y="0px" viewBox="0 0 800 348.239" style="enable-background:new 0 0 800 348.239;" xml:space="preserve">
<g>
	<g>
		<defs>
			<path id="SVGID_8_" d="M12.932,258.224c0,0-3.31-6.155-4.694-9.513c-1.398-3.36-4.261-12.554-5.205-18.953
				c-0.937-6.449-1.599-16.845-0.33-22.411c1.274-5.614,3.978-10.836,8.071-16.279c4.089-5.443,9.826-11.009,11.708-12.946
				c1.882-1.961,3.107-2.794,3.107-2.794s4.132-8.141,8.392-14.908c4.259-6.793,9.942-14.343,16.17-20.718
				c6.221-6.375,18.462-16.207,25.989-20.965c7.539-4.707,20.025-11.204,31.69-15.299c11.658-4.095,19.479-6.203,30.893-8.239
				c11.433-2.01,25.064-3.334,31.783-3.873c6.698-0.491,38.297-3.017,41.987-3.31c3.689-0.295,7.699-0.687,15.189-1.178
				c7.49-0.49,15.362-1.299,15.362-1.299l1.017-0.073c0,0,9.17-6.866,16.17-11.5c6.999-4.659,10.151-6.987,10.151-6.987
				s-0.405-3.727,2.158-7.136c2.586-3.481,5.62-5.124,6.111-5.32c0.497-0.245,1.312-0.637,3.022-1.127
				c1.735-0.491,4.064-1.006,6.025-1.055c1.962-0.025,3.194,0.907,3.194,0.907l0.497-0.148c0,0,18.818-11.425,25.996-15.667
				c7.165-4.267,21.103-11.843,27.142-14.761c6.056-2.893,17.426-8.067,19.945-9.145c2.532-1.078,2.979-1.006,3.17-0.956
				c0.183,0.025,0.49,0.098,0.49,0.098l1.926-0.613c0,0,9.354-2.868,21.386-5.271c12.044-2.428,24.04-3.433,30.164-3.972
				c6.13-0.564,16.648-1.349,25.898-1.716c9.249-0.417,25.86-0.172,32.132,0.024c6.282,0.172,42.784,2.747,58.789,5.026
				c16.016,2.28,54.522,10.102,60.499,11.327c5.983,1.226,23.323,5.443,33.37,8.509c10.034,3.065,27.669,9.636,31.09,11.033
				c3.426,1.374,5.75,2.427,5.75,2.427s18.677,1.103,36.091,4.095c17.395,3.04,30.163,7.601,35.049,9.122
				c4.86,1.495,17.346,6.766,17.346,6.766s3.132,1.52,3.481,1.741c0.35,0.245,0.399,1.276,0.399,1.276s4.468-0.393,9.12-0.368
				c4.628,0.049,7.589,1.349,8.821,2.378c1.208,1.054,1.624,1.275,4.162,4.953c2.562,3.628,3.077,6.301,3.255,6.694
				c0.178,0.417,0.355,1.053,0.355,1.053s1.564,0.467,1.907,1.103c0.336,0.638,3.653,7.356,4.929,12.113
				c1.28,4.757,3.254,14.195,3.775,25.794c0.521,11.572-0.232,23.219-0.741,28.784c-0.533,5.566-2.685,20.106-3.85,25.132
				c-1.159,5.075-1.857,8.189-1.857,8.189c0.011,0,1.176,2.207,0.698,5.713c-0.46,3.555-1.219,4.585-1.735,5.125
				c-0.521,0.514-2.035,0.98-2.035,0.98s-2.029,5.517-5.504,12.087c-3.476,6.595-7.552,11.549-8.306,12.53
				c-0.754,1.006-3.132,3.874-4.113,4.805c-0.986,0.932-2.955,1.839-2.955,1.839l-1.746,0.785c0,0-2.55,8.335-7.723,17.284
				c-5.155,8.901-12.872,17.876-24.421,22.606c-11.548,4.782-34.061,1.177-37.544,0.54c-3.475-0.663-18.388-4.879-22.453-7.601
				c-4.064-2.722-6.085-5.688-6.085-5.688l-40.505,6.4l-68.462,13.141l-45.733,10.101l-56.208,13.927
				c0,0-36.318,9.978-37.318,10.223c-0.98,0.246-8.924-0.759-8.924-0.759s-5.051,11.99-13.007,21.822
				c-7.944,9.881-13.693,15.078-28.424,20.57c-14.741,5.518-33.191,1.006-40.087-0.466c-6.908-1.421-21.006-6.424-26.523-9.93
				c-5.511-3.555-7.95-6.84-7.95-6.84s-1.46,0.907-2.201,0.956c-0.76,0.072-19.038,0.072-30.121-0.393
				c-11.084-0.44-29.355-1.373-37.545-2.084c-8.176-0.687-41.19-4.119-47.627-4.978c-6.449-0.857-10.335-2.158-10.335-2.158
				s-26.632-2.182-35.741-3.873c-9.109-1.692-43.288-9.612-43.288-9.612s-20.472-5.737-29.87-8.582
				c-9.403-2.82-17.414-5.565-25.186-8.582c-7.778-2.99-13.872-5.86-17.231-7.576c-3.37-1.74-3.715-2.696-4.529-3.947
				c-0.803-1.201-0.123-2.893-0.123-2.893l0.478-0.638c0,0-2.39-0.857-4.529-2.623c-2.139-1.716-1.858-3.285-1.569-4.168
				c0.287-0.859,3.364-4.414,5.001-5.713C11.516,259.278,12.932,258.224,12.932,258.224L12.932,258.224z M249.297,87.183
				c0,0,35.257-24.813,63.337-41.854c28.086-17.065,56.166-30.844,64.423-32.487c8.257-1.667,14.876-1.667,14.876-1.667
				s42.951,2.77,76.535,8.802c33.597,6.056,71.036,19.296,71.036,19.296s-39.1,47.909-48.455,61.124
				c-9.36,13.191-20.926,29.742-20.926,29.742s-17.064-2.772-45.15-6.621c-28.086-3.849-89.762-18.169-117.291-23.685
				c-27.54-5.492-53.426-10.469-53.426-10.469L249.297,87.183L249.297,87.183z M515.279,125.162V99.295
				c0,0,24.781-39.647,32.493-46.806c7.71-7.159,26.425-11.008,44.599-11.572c18.169-0.564,36.337,4.413,36.337,4.413
				c0.011,0,8.268,17.629,8.814,27.51c0.557,9.93,0.557,18.733,0.557,18.733s-18.173,7.723-30.286,11.008
				c-10.751,2.943-20.92,4.414-20.92,4.414s-3.861-7.159-20.387-8.802c-16.513-1.642-20.374,0-24.781,6.596
				c-4.401,6.596-18.169,18.733-18.169,18.733L515.279,125.162L515.279,125.162z M641.936,88.825c0,0,1.642-16.525-2.201-25.327
				c-3.856-8.827-7.165-16.501-7.165-16.501s23.121,4.365,30.832,9.341c7.718,4.953,15.428,11.009,15.428,11.009
				S662.863,78.357,641.936,88.825L641.936,88.825z M441.209,203.082c0,0,1.661-7.013,7.429-14.466
				c5.793-7.429,14.055-11.966,14.055-11.966l-16.942,25.598L441.209,203.082L441.209,203.082z M449.465,201.022l16.114-24.372
				l6.204-2.892l-14.473,25.205L449.465,201.022L449.465,201.022z M463.11,196.069l13.216-21.895l8.667-4.144l-12.811,21.92
				L463.11,196.069L463.11,196.069z M126.912,153.529c0,0-0.404-4.119,4.542-5.37c4.953-1.25,20.651,2.06,28.497,4.561
				c7.859,2.452,11.971,4.511,12.4,7.429c0.41,2.868-0.828,3.701-0.828,3.701S136.83,156.423,126.912,153.529L126.912,153.529z
				 M189.276,225.393c-6.197-0.417-10.739-2.059-5.781-9.096c4.954-7.013,42.124-26.407,65.661-36.336
				c23.544-9.93,34.288-14.883,41.724-15.299c7.429-0.393,16.102-1.643,12.8,5.002c-3.311,6.595-18.169,30.133-25.598,37.12
				c-7.435,7.038-28.925,15.717-45.855,17.776C215.302,226.619,195.478,225.81,189.276,225.393L189.276,225.393z M32.277,183.074
				c0,0-3.776,4.267-5.774,2.772c-2.011-1.496-1.514-7.037-1.514-7.037l3.015-4.757c0,0,12.798-23.096,20.583-30.869
				c7.786-7.797,23.593-20.84,27.86-23.096c4.272-2.256,7.025-4.267,9.285-3.506c2.256,0.76,2.759,2.746,0.497,5.027
				c-2.263,2.255-26.094,30.868-32.119,38.641C48.092,168.02,32.277,183.074,32.277,183.074L32.277,183.074z M79.708,200.923
				l-7.269,8.509l5.015,3.015l8.532-9.317L79.708,200.923L79.708,200.923z M124.638,246.062l-0.508,5.518l26.86,3.776
				L124.638,246.062L124.638,246.062z M150.99,258.615l-4.775,9.538l-21.079-3.776l-0.245-8.532L150.99,258.615L150.99,258.615z
				 M125.889,267.369v6.3l11.039,5.272l7.785-7.527L125.889,267.369L125.889,267.369z M125.889,278.427l-0.246,5.272l8.03-2.256
				L125.889,278.427L125.889,278.427z M122.383,278.181v5.052l-19.082-0.27l-6.779-2.796v-5.981L122.383,278.181L122.383,278.181z
				 M92.261,274.186l0.246,6.521l-21.834-7.037l0.509-5.272L92.261,274.186L92.261,274.186z M66.664,267.639l-0.263,5.272
				l-18.817-7.282v-5.002L66.664,267.639L66.664,267.639z M44.071,260.627l0.496,5.002L28.76,257.61l-0.259-3.504L44.071,260.627
				L44.071,260.627z M25.987,252.339l-0.245,3.261l-6.019-6.767L25.987,252.339L25.987,252.339z M121.622,267.369l-0.251,7.061
				l-25.855-6.277l-0.251-6.521L121.622,267.369L121.622,267.369z M95.773,256.581l-0.257-7.013l25.855,6.032v7.798L95.773,256.581
				L95.773,256.581z M95.516,240.521l0.257,4.781l24.844,5.516v-5.762L95.516,240.521L95.516,240.521z M91.502,239.296v5.516
				l-21.324-5.762l0.245-5.271L91.502,239.296L91.502,239.296z M91.257,248.588v7.012l-16.82-3.506c0,0-0.496-1.765-1.257-2.771
				c-0.742-1.006-1.998-1.006-1.998-1.006l-1.004-5.001L91.257,248.588L91.257,248.588z M90.747,260.627v7.527l-19.566-5.271
				l-1.004-1.767l2.513-1.004l0.741-2.747l-0.496-1.52L90.747,260.627L90.747,260.627z M64.158,260.871l-16.82-6.032v-5.516
				l13.044,3.506l1.256,2.01l2.01-0.269l0.252-2.232c1.25-0.759,2.004,2.771,2.004,2.771l-1.495,2.255l-1.52,1.006L64.158,260.871
				L64.158,260.871z M46.327,244.053v-6.253l16.562,4.757l0.508,1.766l2.011-0.269l-0.504,1.25l-3.518,0.515l-1.747,2.011
				L46.327,244.053L46.327,244.053z M64.904,238.29l0.246-4.512l-18.824-5.786l0.251,5.271L64.904,238.29L64.904,238.29z
				 M43.814,237.04v6.521L27,236.255v-6.742L43.814,237.04L43.814,237.04z M43.316,232.259l-16.066-6.007v-3.776l15.815,4.046
				L43.316,232.259L43.316,232.259z M43.316,247.558v7.013l-14.816-5.518v-7.012L43.316,247.558L43.316,247.558z M23.733,225.737
				v-5.517l-12.536-3.775l0.498,3.039L23.733,225.737L23.733,225.737z M23.487,228.507v7.282l-9.783-4.02l-1.256-7.283
				L23.487,228.507L23.487,228.507z M15.452,237.529l3.763,8.779l5.775,2.28v-7.527L15.452,237.529L15.452,237.529z
				 M199.854,293.456c0,0,12.554,0.344,21.148,3.972c8.588,3.629,17.176,10.544,19.817,13.216c2.649,2.622,7.263,4.266,2.649,4.927
				c-4.622,0.712-15.864,0-15.864,0S224.956,306.354,199.854,293.456L199.854,293.456z M16.151,271.635c0,0,4.627-3.285,8.905-1.642
				c4.31,1.642,20.504,8.924,20.504,8.924l0.65,6.939L16.151,271.635L16.151,271.635z M50.837,281.566v5.639l42.95,12.872
				l-0.661-7.601L50.837,281.566L50.837,281.566z M98.084,294.781l1.325,6.619c0,0,45.267,11.573,55.515,11.866
				c-6.944-4.29-18.848-9.88-23.47-10.885C126.839,301.4,98.084,294.781,98.084,294.781L98.084,294.781z"></path>
		</defs>
		<use xlink:href="#SVGID_8_" style="overflow:visible;fill-rule:evenodd;clip-rule:evenodd;fill:#231815;"></use>
		<clipPath id="SVGID_1_">
			<use xlink:href="#SVGID_8_" style="overflow:visible;"></use>
		</clipPath>
	</g>
</g>
</svg>
